{
  "accessors": [
    {
      "bufferView": 0,
      "byteOffset": 0,
      "componentType": 5123,
      "count": 768,
      "type": "SCALAR",
      "max": [
        723
      ],
      "min": [
        0
      ]
    },
    {
      "bufferView": 1,
      "byteOffset": 0,
      "componentType": 5126,
      "count": 724,
      "type": "VEC3",
      "max": [
        0.08999999612569809,
        0.1599999964237213,
        0.39793476462364197
      ],
      "min": [
        -0.08999999612569809,
        -0.06000000238418579,
        -0.3779347836971283
      ],
      "name": "POSITION"
    },
    {
      "bufferView": 1,
      "byteOffset": 12,
      "componentType": 5126,
      "count": 724,
      "type": "VEC3",
      "max": [
        1.0000044107437134,
        1.0000044107437134,
        1.0000044107437134
      ],
      "min": [
        -1.0000044107437134,
        -1.0000044107437134,
        -1.0000044107437134
      ],
      "name": "NORMAL"
    },
    {
      "bufferView": 1,
      "byteOffset": 24,
      "componentType": 5126,
      "count": 724,
      "type": "VEC2",
      "max": [
        14.879322052001953,
        13.879322052001953
      ],
      "min": [
        -14.879322052001953,
        -16.666723251342773
      ],
      "name": "TEXCOORD_0"
    },
    {
      "bufferView": 0,
      "byteOffset": 1536,
      "componentType": 5123,
      "count": 144,
      "type": "SCALAR",
      "max": [
        136
      ],
      "min": [
        0
      ]
    },
    {
      "bufferView": 2,
      "byteOffset": 0,
      "componentType": 5126,
      "count": 137,
      "type": "VEC3",
      "max": [
        0.07000000029802322,
        0.15359815955162048,
        0.39793476462364197
      ],
      "min": [
        -0.07000000029802322,
        0.02500000037252903,
        -0.24257037043571472
      ],
      "name": "POSITION"
    },
    {
      "bufferView": 2,
      "byteOffset": 12,
      "componentType": 5126,
      "count": 137,
      "type": "VEC3",
      "max": [
        1.0000044107437134,
        1.0000044107437134,
        0.7682246565818787
      ],
      "min": [
        -1.0000044107437134,
        -1.0000044107437134,
        -0.7682246565818787
      ],
      "name": "NORMAL"
    },
    {
      "bufferView": 2,
      "byteOffset": 24,
      "componentType": 5126,
      "count": 137,
      "type": "VEC2",
      "max": [
        15.666723251342773,
        8.827959060668945
      ],
      "min": [
        -15.666723251342773,
        -16.666723251342773
      ],
      "name": "TEXCOORD_0"
    },
    {
      "bufferView": 0,
      "byteOffset": 1824,
      "componentType": 5123,
      "count": 270,
      "type": "SCALAR",
      "max": [
        263
      ],
      "min": [
        0
      ]
    },
    {
      "bufferView": 3,
      "byteOffset": 0,
      "componentType": 5126,
      "count": 264,
      "type": "VEC3",
      "max": [
        0.05000000074505806,
        0.1459159404039383,
        0.39793476462364197
      ],
      "min": [
        -0.05000000074505806,
        -0.1599999964237213,
        -0.30293476581573486
      ],
      "name": "POSITION"
    },
    {
      "bufferView": 3,
      "byteOffset": 12,
      "componentType": 5126,
      "count": 264,
      "type": "VEC3",
      "max": [
        1.0000044107437134,
        1.0000044107437134,
        1.0000044107437134
      ],
      "min": [
        -1.0000044107437134,
        -1.0000044107437134,
        -1.0000044107437134
      ],
      "name": "NORMAL"
    },
    {
      "bufferView": 3,
      "byteOffset": 24,
      "componentType": 5126,
      "count": 264,
      "type": "VEC2",
      "max": [
        15.666723251342773,
        10.926566123962402
      ],
      "min": [
        -15.666723251342773,
        -16.666723251342773
      ],
      "name": "TEXCOORD_0"
    },
    {
      "bufferView": 0,
      "byteOffset": 2364,
      "componentType": 5123,
      "count": 402,
      "type": "SCALAR",
      "max": [
        372
      ],
      "min": [
        0
      ]
    },
    {
      "bufferView": 4,
      "byteOffset": 0,
      "componentType": 5126,
      "count": 373,
      "type": "VEC3",
      "max": [
        0.05000000074505806,
        0.10999999195337296,
        0.23793476819992065
      ],
      "min": [
        -0.05000000074505806,
        -0.03999999910593033,
        -0.39793476462364197
      ],
      "name": "POSITION"
    },
    {
      "bufferView": 4,
      "byteOffset": 12,
      "componentType": 5126,
      "count": 373,
      "type": "VEC3",
      "max": [
        1.0000044107437134,
        1.0000044107437134,
        1.0000044107437134
      ],
      "min": [
        -1.0000044107437134,
        -1.0000044107437134,
        -1.0000044107437134
      ],
      "name": "NORMAL"
    },
    {
      "bufferView": 4,
      "byteOffset": 24,
      "componentType": 5126,
      "count": 373,
      "type": "VEC2",
      "max": [
        15.666723251342773,
        14.273022651672363
      ],
      "min": [
        -15.666723251342773,
        -8.694282531738281
      ],
      "name": "TEXCOORD_0"
    }
  ],
  "asset": {
    "generator": "Aspose.3D 22.1",
    "version": "2.0"
  },
  "buffers": [
    {
      "uri": "data:application/octet-stream;base64,",
      "byteLength": 53876
    }
  ],
  "bufferViews": [
    {
      "buffer": 0,
      "byteOffset": 0,
      "byteLength": 3168,
      "target": 34963
    },
    {
      "buffer": 0,
      "byteOffset": 3172,
      "byteLength": 24576,
      "byteStride": 32,
      "target": 34962
    },
    {
      "buffer": 0,
      "byteOffset": 27752,
      "byteLength": 4608,
      "byteStride": 32,
      "target": 34962
    },
    {
      "buffer": 0,
      "byteOffset": 32364,
      "byteLength": 8640,
      "byteStride": 32,
      "target": 34962
    },
    {
      "buffer": 0,
      "byteOffset": 41008,
      "byteLength": 12864,
      "byteStride": 32,
      "target": 34962
    }
  ],
  "materials": [
    {
      "name": "metal",
      "pbrMetallicRoughness": {
        "baseColorFactor": [
          0.796078444,
          0.8156863,
          0.8784314,
          1
        ],
        "metallicFactor": 1,
        "roughnessFactor": 1
      },
      "emissiveFactor": [
        0,
        0,
        0
      ],
      "alphaMode": "OPAQUE",
      "doubleSided": false
    },
    {
      "name": "darkMetal",
      "pbrMetallicRoughness": {
        "baseColorFactor": [
          0.5921569,
          0.635294139,
          0.768627465,
          1
        ],
        "metallicFactor": 1,
        "roughnessFactor": 1
      },
      "emissiveFactor": [
        0,
        0,
        0
      ],
      "alphaMode": "OPAQUE",
      "doubleSided": false
    },
    {
      "name": "dark",
      "pbrMetallicRoughness": {
        "baseColorFactor": [
          0.156862751,
          0.196078435,
          0.239215687,
          1
        ],
        "metallicFactor": 1,
        "roughnessFactor": 1
      },
      "emissiveFactor": [
        0,
        0,
        0
      ],
      "alphaMode": "OPAQUE",
      "doubleSided": false
    },
    {
      "name": "yellow",
      "pbrMetallicRoughness": {
        "baseColorFactor": [
          0.996078432,
          0.7764706,
          0.219607845,
          1
        ],
        "metallicFactor": 1,
        "roughnessFactor": 1
      },
      "emissiveFactor": [
        0,
        0,
        0
      ],
      "alphaMode": "OPAQUE",
      "doubleSided": false
    }
  ],
  "meshes": [
    {
      "primitives": [
        {
          "attributes": {
            "POSITION": 1,
            "NORMAL": 2,
            "TEXCOORD_0": 3
          },
          "indices": 0,
          "material": 0,
          "mode": 4
        },
        {
          "attributes": {
            "POSITION": 5,
            "NORMAL": 6,
            "TEXCOORD_0": 7
          },
          "indices": 4,
          "material": 1,
          "mode": 4
        },
        {
          "attributes": {
            "POSITION": 9,
            "NORMAL": 10,
            "TEXCOORD_0": 11
          },
          "indices": 8,
          "material": 2,
          "mode": 4
        },
        {
          "attributes": {
            "POSITION": 13,
            "NORMAL": 14,
            "TEXCOORD_0": 15
          },
          "indices": 12,
          "material": 3,
          "mode": 4
        }
      ]
    }
  ],
  "nodes": [
    {
      "matrix": [
        1,
        0,
        0,
        0,
        0,
        1,
        0,
        0,
        0,
        0,
        1,
        0,
        -0.15,
        0,
        -0.15,
        1
      ],
      "mesh": 0,
      "name": "blasterG"
    }
  ],
  "scene": 0,
  "scenes": [
    {
      "nodes": [
        0
      ]
    }
  ]
}